HIERARCHY
ROOT Hips
{
	OFFSET 0.000000 0.000000 0.000000
	CHANNELS 6 Xposition Yposition Zposition Xrotation Yrotation Zrotation
	JOINT LeftUpLeg_virtual
	{
		OFFSET 0.000000 0.000000 0.000000
		CHANNELS 3 Xrotation Yrotation Zrotation
		JOINT LeftUpLeg
		{
			OFFSET 15.427100 -6.655098 0.678600
			CHANNELS 3 Xrotation Yrotation Zrotation
			JOINT LeftLeg
			{
				OFFSET 4.081073 -39.591068 13.024000
				CHANNELS 3 Xrotation Yrotation Zrotation
				JOINT LeftFoot
				{
					OFFSET -4.081074 -37.707932 -15.979700
					CHANNELS 3 Xrotation Yrotation Zrotation
					JOINT LeftToeBase
					{
						OFFSET 5.346399 -15.068900 20.645000
						CHANNELS 3 Xrotation Yrotation Zrotation
						JOINT LeftToe_End
						{
							OFFSET 2.754700 0.931300 11.300900
							CHANNELS 3 Xrotation Yrotation Zrotation
							End Site
							{
								OFFSET 0 0 0
							}
						}
					}
				}
			}
		}
	}
	JOINT RightUpLeg_virtual
	{
		OFFSET 0.000000 0.000000 0.000000
		CHANNELS 3 Xrotation Yrotation Zrotation
		JOINT RightUpLeg
		{
			OFFSET -15.569500 -6.655098 0.678600
			CHANNELS 3 Xrotation Yrotation Zrotation
			JOINT RightLeg
			{
				OFFSET -4.081825 -39.591045 13.023800
				CHANNELS 3 Xrotation Yrotation Zrotation
				JOINT RightFoot
				{
					OFFSET 4.081824 -37.707954 -15.979600
					CHANNELS 3 Xrotation Yrotation Zrotation
					JOINT RightToeBase
					{
						OFFSET -5.346400 -15.068900 20.645000
						CHANNELS 3 Xrotation Yrotation Zrotation
						JOINT RightToe_End
						{
							OFFSET -2.754700 0.931300 11.300900
							CHANNELS 3 Xrotation Yrotation Zrotation
							End Site
							{
								OFFSET 0 0 0
							}
						}
					}
				}
			}
		}
	}
	JOINT Spine_virtual
	{
		OFFSET 0.000000 0.000000 0.000000
		CHANNELS 3 Xrotation Yrotation Zrotation
		JOINT Spine
		{
			OFFSET -0.279200 12.230698 -2.892100
			CHANNELS 3 Xrotation Yrotation Zrotation
			JOINT Spine1
			{
				OFFSET -0.232667 10.192268 -1.242267
				CHANNELS 3 Xrotation Yrotation Zrotation
				JOINT Spine1_split
				{
					OFFSET -0.232667 10.192268 -1.242267
					CHANNELS 3 Xrotation Yrotation Zrotation
					JOINT Spine2
					{
						OFFSET -0.232667 10.192268 -1.242267
						CHANNELS 3 Xrotation Yrotation Zrotation
						JOINT Neck_virtual
						{
							OFFSET 0.000000 0.000000 0.000000
							CHANNELS 3 Xrotation Yrotation Zrotation
							JOINT Neck
							{
								OFFSET -0.418800 17.814194 8.416900
								CHANNELS 3 Xrotation Yrotation Zrotation
								JOINT Head
								{
									OFFSET 0.000000 7.031097 3.806800
									CHANNELS 3 Xrotation Yrotation Zrotation
									JOINT HeadTop_End
									{
										OFFSET 0.000000 24.646606 12.978600
										CHANNELS 3 Xrotation Yrotation Zrotation
										End Site
										{
											OFFSET 0 0 0
										}
									}
								}
							}
						}
						JOINT LeftShoulder_virtual
						{
							OFFSET 0.000000 0.000000 0.000000
							CHANNELS 3 Xrotation Yrotation Zrotation
							JOINT LeftShoulder
							{
								OFFSET 8.476499 7.247704 -3.868750
								CHANNELS 3 Xrotation Yrotation Zrotation
								JOINT LeftShoulder_split
								{
									OFFSET 8.476499 7.247704 -3.868750
									CHANNELS 3 Xrotation Yrotation Zrotation
									JOINT LeftArm
									{
										OFFSET 9.308998 -2.777710 0.208600
										CHANNELS 3 Xrotation Yrotation Zrotation
										JOINT LeftForeArm
										{
											OFFSET 29.972298 0.000000 0.000000
											CHANNELS 3 Xrotation Yrotation Zrotation
											JOINT LeftHand
											{
												OFFSET 26.026505 0.000000 0.000000
												CHANNELS 3 Xrotation Yrotation Zrotation
												End Site
												{
													OFFSET 0 0 0
												}
											}
										}
									}
								}
							}
						}
						JOINT RightShoulder_virtual
						{
							OFFSET 0.000000 0.000000 0.000000
							CHANNELS 3 Xrotation Yrotation Zrotation
							JOINT RightShoulder
							{
								OFFSET -7.570500 7.247704 -3.868750
								CHANNELS 3 Xrotation Yrotation Zrotation
								JOINT RightShoulder_split
								{
									OFFSET -7.570500 7.247704 -3.868750
									CHANNELS 3 Xrotation Yrotation Zrotation
									JOINT RightArm
									{
										OFFSET -9.308998 -2.777710 0.208500
										CHANNELS 3 Xrotation Yrotation Zrotation
										JOINT RightForeArm
										{
											OFFSET -29.972300 0.000000 0.000000
											CHANNELS 3 Xrotation Yrotation Zrotation
											JOINT RightHand
											{
												OFFSET -26.026505 0.000000 0.000000
												CHANNELS 3 Xrotation Yrotation Zrotation
												End Site
												{
													OFFSET 0 0 0
												}
											}
										}
									}
								}
							}
						}
					}
				}
			}
		}
	}
}
MOTION
Frames: 6
Frame Time: 0.03333333
1.327036 69.801720 0.764275 0.000000 0.000000 0.000000 7.242794 -56.220100 8.747895 -64.689821 22.747728 48.947362 49.721704 -19.152071 -0.626440 4.318987 1.604425 -13.145831 -0.290802 -6.070718 1.415500 0.000000 0.000000 0.000000 6.246646 -56.646727 9.217427 -24.121581 2.738878 -38.994650 45.795701 11.118016 -4.298078 -25.109240 -7.490715 30.277747 6.614812 3.045106 2.664509 0.000000 0.000000 0.000000 9.817759 -50.517312 10.720393 13.111120 3.717190 -2.924277 3.081163 6.602251 -4.286561 0.235355 -4.384335 1.360281 0.000000 0.000000 0.000000 -3.771147 5.807279 -3.208487 -0.874299 10.767862 0.061643 -2.478047 26.071795 -4.645507 0.000000 0.000000 0.000000 -4.682438 5.509313 -3.408772 -0.710327 -7.759272 -2.683116 -0.112469 -3.370128 3.166944 -10.139430 5.932812 -45.131390 -20.860965 -28.458328 -17.010468 0.000000 0.000000 0.000000 -5.043793 5.491068 -2.804417 -2.258203 21.640807 1.085469 -5.338104 -2.242478 3.065996 3.627407 -29.535848 59.415283 -19.750716 38.774209 19.376323 0.000000 0.000000 0.000000 
1.029749 69.717445 0.561329 0.000000 0.000000 0.000000 7.004107 -56.215708 8.871503 -64.831992 22.930164 49.188806 49.741139 -19.513521 -0.671307 4.858911 1.449247 -13.338070 0.302545 -6.016509 1.142827 0.000000 0.000000 0.000000 6.103867 -56.627015 9.323948 -24.325189 2.450932 -39.241202 45.616535 10.826028 -4.228595 -25.045747 -7.477733 29.936036 6.499602 3.058912 2.656883 0.000000 0.000000 0.000000 9.222857 -50.470488 10.298788 13.265627 3.505129 -3.166262 3.076802 6.579067 -4.297229 -0.183226 -4.013172 1.015659 0.000000 0.000000 0.000000 -3.875596 5.849112 -3.201124 -1.002786 11.083415 -0.100374 -2.351674 26.145274 -4.464428 0.000000 0.000000 0.000000 -4.719741 5.506725 -3.383005 -0.591483 -7.929754 -2.106525 -0.533275 -2.690171 2.301563 -10.812505 5.960266 -45.189973 -21.347131 -29.419650 -17.572087 0.000000 0.000000 0.000000 -4.922826 5.479357 -2.735262 -2.276837 21.273321 1.215742 -6.220863 -1.600546 3.164041 5.501312 -29.742848 60.025150 -19.768214 39.079071 19.443778 0.000000 0.000000 0.000000 
0.686738 69.748055 0.408897 0.000000 0.000000 0.000000 6.593035 -56.259274 8.696263 -64.768949 22.945100 49.562448 49.449965 -19.715194 -0.661958 5.208932 1.375491 -13.553892 0.850750 -5.930923 0.567596 0.000000 0.000000 0.000000 5.681896 -56.758312 9.085022 -24.448881 2.055160 -39.128467 45.533381 10.469402 -4.166163 -25.146374 -7.523461 29.277107 6.143234 3.037106 2.592076 0.000000 0.000000 0.000000 8.561158 -50.691400 9.712938 13.416189 3.272634 -3.463048 3.078038 6.636847 -4.269797 -0.422165 -3.616820 0.959040 0.000000 0.000000 0.000000 -3.940583 5.995655 -3.149137 -0.829396 11.463461 -0.340843 -1.925256 25.569817 -4.227506 0.000000 0.000000 0.000000 -4.773784 5.607244 -3.218593 -0.464832 -8.203600 -1.569311 -0.558862 -1.969982 1.189172 -11.253981 6.258275 -44.763328 -22.318429 -31.410237 -18.888849 0.000000 0.000000 0.000000 -4.798959 5.568451 -2.635675 -2.100216 20.752760 1.091642 -6.662584 -0.965446 3.096211 7.902768 -30.555965 61.321138 -20.335336 41.171410 19.927159 0.000000 0.000000 0.000000 
0.470376 69.943092 0.267284 0.000000 0.000000 0.000000 6.135408 -56.601378 8.309214 -64.254834 22.738991 49.816231 48.745978 -19.805875 -0.593187 5.390861 1.392129 -14.011285 0.688070 -5.818951 -0.036124 0.000000 0.000000 0.000000 5.181838 -57.005920 8.658810 -24.758080 1.696151 -38.668556 45.492089 10.215344 -4.098989 -25.255156 -7.465001 28.470368 5.797880 2.988852 2.472533 0.000000 0.000000 0.000000 8.050028 -51.304580 9.161504 13.499237 3.043386 -3.694237 3.091586 6.710518 -4.192305 -0.272907 -3.246425 1.160873 0.000000 0.000000 0.000000 -3.937022 6.168256 -3.044289 -0.524846 11.940876 -0.641591 -1.264748 24.558746 -4.068887 0.000000 0.000000 0.000000 -4.821519 5.737496 -2.983004 -0.360392 -8.538073 -1.300524 -0.055713 -1.382272 0.119264 -11.334071 6.666109 -43.955262 -23.559368 -33.907699 -20.669430 0.000000 0.000000 0.000000 -4.720230 5.690032 -2.512155 -1.795360 20.167380 0.813904 -6.899584 -0.892369 2.883166 10.252019 -31.834579 62.658127 -21.457487 44.475699 20.807270 0.000000 0.000000 0.000000 
0.398821 70.220322 0.233601 0.000000 0.000000 0.000000 5.824071 -57.338646 7.970358 -63.163629 22.446483 49.799230 47.940439 -19.859943 -0.332663 5.318627 1.552550 -14.857900 0.016698 -5.715810 -0.422314 0.000000 0.000000 0.000000 4.883627 -57.412487 8.318331 -25.475248 1.426961 -37.947950 45.681231 10.147186 -3.967752 -25.352781 -7.157915 27.480966 5.973562 2.927441 2.327969 0.000000 0.000000 0.000000 7.962772 -52.265075 8.885271 13.451240 2.863918 -3.772088 3.132257 6.749697 -4.100741 0.061827 -2.898575 1.353630 0.000000 0.000000 0.000000 -3.863956 6.283684 -2.918504 -0.259950 12.565512 -1.078333 -0.481824 23.464032 -4.149068 0.000000 0.000000 0.000000 -4.836909 5.797361 -2.741870 -0.307623 -8.856367 -1.479989 0.553277 -0.860589 -0.608206 -10.993034 7.058785 -42.850961 -24.749073 -36.518549 -22.524815 0.000000 0.000000 0.000000 -4.720557 5.770658 -2.387265 -1.461856 19.644602 0.499808 -6.900283 -1.390376 2.508117 12.030376 -33.081516 63.296490 -23.128617 48.366390 22.085058 0.000000 0.000000 0.000000 
0.373189 70.480019 0.543034 0.000000 0.000000 0.000000 5.816407 -58.462314 7.994286 -61.415968 22.275895 49.398705 47.202034 -19.847874 0.111559 4.673139 1.978535 -16.054459 -0.518730 -5.642495 -0.535661 0.000000 0.000000 0.000000 4.892695 -58.168350 8.330538 -26.859767 1.309090 -37.222506 46.239732 10.221255 -3.743242 -25.286330 -6.594148 26.322357 6.658313 2.857395 2.198009 0.000000 0.000000 0.000000 8.354812 -53.702291 9.113213 13.270998 2.719645 -3.672731 3.147358 6.727567 -4.048954 0.407696 -2.887609 1.448239 0.000000 0.000000 0.000000 -3.785596 6.291539 -2.814231 -0.240643 13.426752 -1.656311 0.413456 22.607696 -4.596961 0.000000 0.000000 0.000000 -4.854414 5.741855 -2.600076 -0.321943 -9.085694 -2.188081 0.855592 -0.419706 -0.781210 -9.986961 7.332011 -41.662296 -25.635930 -38.958832 -24.103669 0.000000 0.000000 0.000000 -4.851377 5.736011 -2.317684 -1.173195 19.296879 0.170996 -6.588686 -2.067307 2.140466 12.962807 -33.989009 62.770893 -25.187045 52.155089 23.662367 0.000000 0.000000 0.000000 
